<svg width="25" height="18" viewBox="0 0 25 18" fill="none" xmlns="http://www.w3.org/2000/svg">
<path d="M7.57588 0.839125H2.02639C0.733857 0.839125 0.0333419 2.35296 0.870286 3.33793L4.95169 8.14005C5.59106 8.89223 6.76708 8.84271 7.34091 8.03934L9.92363 4.42294C10.3441 3.83431 10.2905 3.03095 9.79528 2.50368L8.68064 1.31697C8.39408 1.0121 7.99429 0.83918 7.57588 0.839125Z" stroke="#B5B5B5"/>
<path d="M23.2499 0.839125H17.6422C17.1832 0.839125 16.7483 1.04741 16.4604 1.40484L13.2192 5.42898L9.04692 11.4889C8.6615 12.0487 8.696 12.797 9.13084 13.3193L11.6227 16.3108C12.2354 17.0464 13.3678 17.0375 13.9685 16.292L24.4307 3.30732C25.23 2.31529 24.5238 0.839234 23.2499 0.839125Z" stroke="#B5B5B5"/>
</svg>
