<svg width="200" height="100" viewBox="0 0 200 100" fill="none" xmlns="http://www.w3.org/2000/svg">
<path fill-rule="evenodd" clip-rule="evenodd" d="M53.9694 31.728L55.1312 32.1765C54.9365 32.6958 54.7504 33.2193 54.5749 33.745L53.3981 33.3352C53.5799 32.7966 53.7704 32.2602 53.9694 31.728ZM67.304 12.5389L68.0979 13.5023C65.496 15.7574 63.183 18.2787 61.1802 21.0016L60.1681 20.2742C62.2329 17.4633 64.6187 14.8648 67.304 12.5389ZM118.36 97.3464C95.7172 105.062 70.5457 95.4967 58.7217 74.5588C57.4229 72.574 56.2546 70.4648 55.2382 68.2418C54.8574 67.4071 54.5022 66.5681 54.1726 65.7249L55.3602 65.3386C55.6726 66.1368 56.0107 66.9307 56.3723 67.7204C66.9809 90.9199 94.335 101.104 117.47 90.465C140.604 79.8265 150.759 52.3956 140.15 29.1961C129.805 6.57375 103.538 -3.67207 80.7863 5.69615L80.3113 4.54176C105.359 -6.79838 136.34 3.75856 147.811 28.8442C148.157 29.5995 148.478 30.3591 148.784 31.1058L149.788 33.5691C157.677 56.8029 147.389 82.7576 125.502 94.2565L123.016 95.4989C122.048 95.9409 119.342 96.973 118.362 97.3485L118.36 97.3464Z" fill="#FB4724"/>
<path d="M4.28906 45.3701H3.44887L0 53.7312H0.883169L3.87004 46.4918L6.85691 53.7312L7.75297 53.7291L7.6133 53.4282L4.28906 45.3701Z" fill="#FAFAFA"/>
<path d="M25.438 45.2135C23.0399 45.2135 21.0887 47.169 21.0887 49.5628C21.0887 51.9566 23.0313 53.9034 25.4229 53.912H25.6314V53.1298H25.4251C23.4632 53.1212 21.8731 51.5332 21.8731 49.5649C21.8731 47.5966 23.5298 46 25.438 46C27.3461 46 28.7858 47.3881 28.9814 49.1738H25.208V49.9603L29.7765 49.9646L29.7851 49.7647C29.7872 49.7046 29.7872 49.653 29.7872 49.6014C29.7872 49.5885 29.7872 49.5778 29.7872 49.5649C29.7872 47.1668 27.8361 45.2157 25.438 45.2157V45.2135Z" fill="#FAFAFA"/>
<path d="M68.7109 45.2135C68.7001 45.2135 68.6829 45.2135 68.6657 45.2135L68.4681 45.2243V46.0086L68.6872 45.9979C68.6872 45.9979 68.7001 45.9979 68.713 45.9979C70.5997 45.9979 72.1426 47.4634 72.2693 49.3178H72.2607L72.2715 49.537C72.2715 49.537 72.2715 49.5499 72.2715 49.5628C72.2715 51.5311 70.6749 53.1277 68.7066 53.1277C68.6421 53.1277 68.5776 53.1277 68.5132 53.1234L68.438 53.1191C66.6566 52.9837 65.2405 51.5354 65.1524 49.739L65.1438 49.5413H64.3595L64.3681 49.7583C64.4648 51.9265 66.1559 53.6885 68.294 53.8926V53.8969L68.4251 53.9034C68.5153 53.9098 68.6056 53.912 68.698 53.912H68.9064V53.9055C71.0746 53.8067 72.8323 52.1156 73.0343 49.9753H73.0451L73.0537 49.7755C73.0558 49.7046 73.058 49.6337 73.058 49.5628C73.058 47.1647 71.1068 45.2135 68.7087 45.2135H68.7109Z" fill="#FAFAFA"/>
<path d="M43.2369 45.9675H46.6729V53.9224H47.5153V45.9675H50.9061V45.1939H43.2369V45.9675Z" fill="#FAFAFA"/>
<path d="M111.591 45.2135C111.58 45.2135 111.563 45.2135 111.546 45.2135L111.348 45.2243V46.0086L111.567 45.9979C111.567 45.9979 111.58 45.9979 111.593 45.9979C113.48 45.9979 115.025 47.4634 115.149 49.3178H115.139L115.149 49.537C115.149 49.537 115.149 49.5499 115.149 49.5628C115.149 51.5311 113.553 53.1277 111.584 53.1277C111.52 53.1277 111.455 53.1277 111.391 53.1234L111.316 53.1191C109.534 52.9815 108.118 51.5354 108.03 49.739L108.022 49.5413H107.237L107.246 49.7583C107.343 51.9265 109.034 53.6885 111.172 53.8926V53.8969L111.303 53.9034C111.393 53.9098 111.483 53.912 111.576 53.912H111.784V53.9055C113.952 53.8067 115.71 52.1156 115.914 49.9753H115.927L115.936 49.7755C115.938 49.7046 115.94 49.6337 115.94 49.5628C115.94 47.1647 113.989 45.2135 111.591 45.2135Z" fill="#FAFAFA"/>
<path d="M93.1733 47.7449C93.1733 46.346 92.0388 45.2135 90.642 45.2135H86.5227V53.9163H87.3221V46.0129H90.6721C91.6133 46.0258 92.374 46.7929 92.374 47.7363V47.7449C92.374 48.0414 92.2988 48.3207 92.1677 48.5657L92.0968 48.6731C92.0345 48.7698 91.9614 48.8622 91.8797 48.9439L91.6863 49.1394L91.9292 49.2705C92.447 49.552 92.8295 50.0505 92.9541 50.6436C92.9821 50.7811 92.9993 50.923 92.9993 51.0691C92.9993 52.1972 92.0839 53.1126 90.9557 53.1126H90.0661V53.912H90.9557C92.5265 53.912 93.8008 52.6377 93.8008 51.0669C93.8008 50.231 93.4398 49.4768 92.8639 48.9568C93.0616 48.5958 93.1755 48.1811 93.1755 47.7406L93.1733 47.7449Z" fill="#FAFAFA"/>
<path d="M200 41.3818H129.097V57.4464H200V41.3818Z" fill="#FAFAFA"/>
<path fill-rule="evenodd" clip-rule="evenodd" d="M169.112 45.6327H172.836C174.162 45.637 175.236 46.7114 175.236 48.0373C175.236 49.3631 174.171 50.4311 172.851 50.4418H172.617V49.6618H172.847C173.737 49.651 174.454 48.9269 174.454 48.0373C174.454 47.1477 173.737 46.4256 172.849 46.4149H169.897V52.9237H169.112V45.6306V45.6327Z" fill="#242424"/>
<path fill-rule="evenodd" clip-rule="evenodd" d="M157.414 46.3308C158.942 46.3308 160.199 47.4976 160.343 48.991H160.339L160.352 49.2575C160.352 49.2575 160.352 49.2639 160.352 49.2747C160.352 50.9013 159.034 52.2207 157.41 52.2207C157.356 52.2207 157.302 52.2207 157.249 52.2164L157.182 52.2121C155.714 52.0982 154.548 50.9035 154.475 49.4208L154.464 49.178H153.643L153.654 49.4444C153.742 51.4407 155.388 53.0373 157.399 53.0437H157.655V53.0351C159.473 52.9169 160.943 51.5009 161.147 49.7044H161.162L161.172 49.4616C161.175 49.4014 161.177 49.3391 161.177 49.2768C161.177 47.1989 159.49 45.5099 157.414 45.5099C157.414 45.5099 157.388 45.5099 157.373 45.5099L157.133 45.5228V46.3437L157.399 46.3308C157.399 46.3308 157.406 46.3308 157.416 46.3308H157.414Z" fill="#242424"/>
<path fill-rule="evenodd" clip-rule="evenodd" d="M182.766 45.6323H189.178V52.9082H188.372V46.393H183.582V52.9104H182.766V45.6323Z" fill="#242424"/>
<path fill-rule="evenodd" clip-rule="evenodd" d="M145.999 45.6413H144.977L141.511 48.944V49.6381L144.97 52.9387H145.991L142.265 49.2921L145.999 45.6413ZM140.473 45.6413H139.66V52.9387H140.473V45.6413Z" fill="#242424"/>
<path d="M192.541 52.0849H191.718V52.9079H192.541V52.0849Z" fill="#242424"/>
</svg>
