<svg width="21" height="19" viewBox="0 0 21 19" fill="none" xmlns="http://www.w3.org/2000/svg">
<path d="M3.75684 9.80572C4.33423 8.80587 5.77715 8.80581 6.35449 9.80572L9.00098 14.3887C9.57826 15.3886 8.85661 16.6384 7.70215 16.6387H2.40918C1.25459 16.6386 0.533032 15.3887 1.11035 14.3887L3.75684 9.80572Z" stroke="white"/>
<path d="M14.6458 9.80572C15.2231 8.80587 16.6661 8.80581 17.2434 9.80572L19.8899 14.3887C20.4672 15.3886 19.7455 16.6384 18.5911 16.6387H13.2981C12.1435 16.6386 11.4219 15.3887 11.9993 14.3887L14.6458 9.80572Z" stroke="white"/>
<path d="M9.20129 1.25016C9.77869 0.250316 11.2216 0.250253 11.799 1.25016L14.4454 5.83317C15.0227 6.83305 14.3011 8.08288 13.1466 8.08317H7.85364C6.69905 8.08304 5.97749 6.83312 6.55481 5.83317L9.20129 1.25016Z" stroke="white"/>
</svg>
