<svg width="80" height="67" viewBox="0 0 80 67" fill="none" xmlns="http://www.w3.org/2000/svg">
<path d="M54.2527 30.3542C54.2527 22.3226 47.8577 15.786 40 15.786C32.1423 15.786 25.7473 22.3226 25.7473 30.3542C25.7473 38.0862 31.6739 44.4326 39.1268 44.8955V31.5177C39.1268 31.0245 39.5179 30.6247 40.0004 30.6247C40.4829 30.6247 40.874 31.0245 40.874 31.5177V51.214H50.2344C50.7169 51.214 51.108 51.6138 51.108 52.107C51.108 52.6002 50.7169 53 50.2344 53H29.7664C29.2839 53 28.8927 52.6002 28.8927 52.107C28.8927 51.6138 29.2839 51.214 29.7664 51.214H39.1268V46.6846C30.6966 46.221 24 39.0866 24 30.3542C24 21.3224 31.1638 14 40 14C48.8362 14 56 21.3224 56 30.3542C56 37.7916 51.1424 44.0697 44.4934 46.0547V44.1806C50.1569 42.2521 54.2527 36.782 54.2527 30.3542Z" fill="white"/>
</svg>
