<svg width="80" height="67" viewBox="0 0 80 67" fill="none" xmlns="http://www.w3.org/2000/svg">
<path fill-rule="evenodd" clip-rule="evenodd" d="M32.1306 43.957C27.2763 41.2074 24 35.9926 24 30.0123C24 21.1693 31.1638 14 40 14C48.8362 14 56 21.1693 56 30.0123C56 36.0403 52.6711 41.2907 47.7528 44.0224L51.3909 50.7073C51.6217 51.1314 51.4653 51.6624 51.0415 51.8933C50.6178 52.1243 50.0872 51.9678 49.8565 51.5437L46.1791 44.7867C44.2779 45.584 42.1903 46.0246 40 46.0246C39.0594 46.0246 38.1378 45.9433 37.2417 45.7875L38.1344 44.1543C38.7451 44.2345 39.3678 44.276 40 44.276C41.8858 44.276 43.6873 43.9074 45.3365 43.2384L39.9341 33.3117L30.0387 51.4349C29.8073 51.8586 29.2765 52.0144 28.8531 51.7828C28.4297 51.5513 28.274 51.0201 28.5054 50.5964L32.1306 43.957ZM40 15.7486C47.8577 15.7486 54.2527 22.1485 54.2527 30.0123C54.2527 35.367 51.2875 40.043 46.9143 42.4818L40.7026 31.0679C40.5497 30.787 40.2557 30.612 39.936 30.6118C39.6163 30.6116 39.322 30.7861 39.1687 31.0669L32.9713 42.4173C28.6609 39.9612 25.7473 35.3202 25.7473 30.0123C25.7473 22.1485 32.1423 15.7486 40 15.7486Z" fill="white"/>
</svg>
