<svg width="80" height="67" viewBox="0 0 80 67" fill="none" xmlns="http://www.w3.org/2000/svg">
<path d="M54.2428 30.3565C54.2428 22.3237 47.8499 15.7862 39.9947 15.7862C32.1396 15.7862 25.7467 22.3237 25.7467 30.3565C25.7467 38.0895 31.6714 44.4368 39.1218 44.8997V34.3878C39.1218 33.8946 39.5128 33.4947 39.9951 33.4947C40.4775 33.4947 40.8685 33.8946 40.8685 34.3878V52.1069C40.8685 52.6001 40.4775 53 39.9951 53C39.5128 53 39.1218 52.6001 39.1218 52.1069V46.689C33.2796 46.3677 28.2703 42.84 25.7467 37.7963V48.0349C25.7467 48.5281 25.3557 48.928 24.8733 48.928C24.391 48.928 24 48.5281 24 48.0349V31.3467C24 31.2828 24.0065 31.2206 24.019 31.1606C24.0064 30.8942 24 30.6261 24 30.3565C24 21.3234 31.1615 14 39.9947 14C48.828 14 55.9895 21.3234 55.9895 30.3565C55.9895 30.6218 55.9833 30.8856 55.9711 31.1478C55.9899 31.2208 56 31.2975 56 31.3766V48.2893C56 48.7826 55.609 49.1824 55.1267 49.1824C54.6443 49.1824 54.2533 48.7826 54.2533 48.2893V37.7752C52.2715 41.7502 48.7469 44.7867 44.4866 46.0591V44.1848C50.1483 42.256 54.2428 36.7851 54.2428 30.3565Z" fill="white"/>
</svg>
