<svg width="80" height="67" viewBox="0 0 80 67" fill="none" xmlns="http://www.w3.org/2000/svg">
<path d="M40.874 10.8813C40.874 10.3946 40.4829 10 40.0004 10C39.5179 10 39.1268 10.3946 39.1268 10.8813V16.0472C30.6966 16.5046 24 23.5457 24 32.1639C24 40.7821 30.6966 47.8232 39.1268 48.2807V53.1187C39.1268 53.6054 39.5179 54 40.0004 54C40.4829 54 40.874 53.6054 40.874 53.1187V48.2806C49.3038 47.8228 56 40.7818 56 32.1639C56 24.8239 51.1424 18.6278 44.4934 16.6688V18.5183C50.1569 20.4216 54.2527 25.8202 54.2527 32.1639C54.2527 39.7945 48.3265 46.0578 40.874 46.5149V33.0446H48.1127C48.5952 33.0446 48.9863 32.65 48.9863 32.1633C48.9863 31.6766 48.5952 31.282 48.1127 31.282H31.8881C31.4056 31.282 31.0144 31.6766 31.0144 32.1633C31.0144 32.65 31.4056 33.0446 31.8881 33.0446H39.1268V46.515C31.6739 46.0582 25.7473 39.7948 25.7473 32.1639C25.7473 24.533 31.6739 18.2696 39.1268 17.8128V27.6309H40.874V10.8813Z" fill="white"/>
</svg>
