<svg width="150" height="12" viewBox="0 0 150 12" fill="none" xmlns="http://www.w3.org/2000/svg">
<path d="M3.20385 2.979H2.57624L0 9.22459H0.659711L2.89085 3.81689L5.12199 9.22459L5.79133 9.22298L5.687 8.99827L3.20385 2.979Z" fill="#FAFAFA"/>
<path d="M19.0017 2.8623C17.2104 2.8623 15.7529 4.32298 15.7529 6.1111C15.7529 7.89922 17.204 9.35348 18.9905 9.3599H19.1462V8.77563H18.9921C17.5266 8.76921 16.3388 7.58301 16.3388 6.11271C16.3388 4.6424 17.5764 3.44979 19.0017 3.44979C20.4271 3.44979 21.5025 4.4867 21.6486 5.82057H18.83V6.40805L22.2425 6.41126L22.2489 6.26198C22.2505 6.21704 22.2505 6.17852 22.2505 6.13999C22.2505 6.13036 22.2505 6.12234 22.2505 6.11271C22.2505 4.32137 20.7931 2.86391 19.0017 2.86391V2.8623Z" fill="#FAFAFA"/>
<path d="M51.3256 2.8623C51.3176 2.8623 51.3047 2.8623 51.2919 2.8623L51.1442 2.87033V3.4562L51.3079 3.44818C51.3079 3.44818 51.3176 3.44818 51.3272 3.44818C52.7365 3.44818 53.889 4.54288 53.9837 5.92811H53.9773L53.9853 6.09184C53.9853 6.09184 53.9853 6.10147 53.9853 6.1111C53.9853 7.5814 52.7927 8.77402 51.3224 8.77402C51.2742 8.77402 51.2261 8.77402 51.1779 8.77081L51.1217 8.7676C49.7911 8.66648 48.7333 7.58462 48.6675 6.24272L48.6611 6.09505H48.0752L48.0816 6.25717C48.1538 7.87675 49.4171 9.19296 51.0142 9.34545V9.34866L51.1121 9.35348C51.1795 9.35829 51.2469 9.3599 51.316 9.3599H51.4717V9.35508C53.0912 9.28124 54.4042 8.018 54.5551 6.41929H54.5632L54.5696 6.27001C54.5712 6.21704 54.5728 6.16407 54.5728 6.1111C54.5728 4.31977 53.1153 2.8623 51.324 2.8623H51.3256Z" fill="#FAFAFA"/>
<path d="M32.2974 3.42526H34.864V9.36748H35.4932V3.42526H38.0261V2.84741H32.2974V3.42526Z" fill="#FAFAFA"/>
<path d="M83.3565 2.8623C83.3485 2.8623 83.3356 2.8623 83.3228 2.8623L83.1751 2.87033V3.4562L83.3388 3.44818C83.3388 3.44818 83.3485 3.44818 83.3581 3.44818C84.7674 3.44818 85.9215 4.54288 86.0146 5.92811H86.0066L86.0146 6.09184C86.0146 6.09184 86.0146 6.10147 86.0146 6.1111C86.0146 7.5814 84.822 8.77402 83.3517 8.77402C83.3035 8.77402 83.2554 8.77402 83.2072 8.77081L83.151 8.7676C81.8204 8.66487 80.7626 7.58462 80.6968 6.24272L80.6904 6.09505H80.1045L80.1109 6.25717C80.1831 7.87675 81.4464 9.19296 83.0435 9.34545V9.34866L83.1414 9.35348C83.2088 9.35829 83.2762 9.3599 83.3453 9.3599H83.501V9.35508C85.1205 9.28124 86.4335 8.018 86.586 6.41929H86.5957L86.6021 6.27001C86.6037 6.21704 86.6053 6.16407 86.6053 6.1111C86.6053 4.31977 85.1478 2.8623 83.3565 2.8623Z" fill="#FAFAFA"/>
<path d="M69.5988 4.75316C69.5988 3.70821 68.7512 2.8623 67.7079 2.8623H64.6309V9.36311H65.228V3.45942H67.7304C68.4334 3.46905 69.0016 4.04208 69.0016 4.74673V4.75316C69.0016 4.97466 68.9455 5.18333 68.8476 5.36632L68.7946 5.44657C68.748 5.5188 68.6935 5.58783 68.6325 5.64882L68.488 5.79489L68.6694 5.8928C69.0562 6.10307 69.3419 6.47547 69.435 6.91848C69.4559 7.02121 69.4687 7.12715 69.4687 7.2363C69.4687 8.079 68.785 8.76279 67.9423 8.76279H67.2777V9.3599H67.9423C69.1156 9.3599 70.0675 8.40805 70.0675 7.23469C70.0675 6.6103 69.7978 6.0469 69.3676 5.65845C69.5153 5.38879 69.6004 5.079 69.6004 4.74994L69.5988 4.75316Z" fill="#FAFAFA"/>
<path d="M149.396 0H96.4331V12H149.396V0Z" fill="#FAFAFA"/>
<path fill-rule="evenodd" clip-rule="evenodd" d="M126.324 3.17555H129.105C130.096 3.17876 130.898 3.98133 130.898 4.9717C130.898 5.96207 130.102 6.75982 129.117 6.76785H128.942V6.18519H129.113C129.778 6.17716 130.314 5.63623 130.314 4.9717C130.314 4.30718 129.778 3.76785 129.115 3.75982H126.91V8.62178H126.324V3.17395V3.17555Z" fill="#242424"/>
<path fill-rule="evenodd" clip-rule="evenodd" d="M117.586 3.69666C118.727 3.69666 119.666 4.56825 119.773 5.68382H119.77L119.78 5.88285C119.78 5.88285 119.78 5.88767 119.78 5.8957C119.78 7.11078 118.796 8.09634 117.582 8.09634C117.542 8.09634 117.502 8.09634 117.462 8.09313L117.412 8.08992C116.316 8.00484 115.444 7.11239 115.39 6.00485L115.382 5.82347H114.769L114.777 6.0225C114.842 7.51367 116.072 8.70629 117.574 8.71111H117.765V8.70468C119.123 8.6164 120.221 7.55862 120.374 6.21672H120.385L120.393 6.03534C120.395 5.9904 120.396 5.94385 120.396 5.8973C120.396 4.34514 119.136 3.0835 117.586 3.0835C117.586 3.0835 117.566 3.0835 117.555 3.0835L117.375 3.09313V3.70629L117.574 3.69666C117.574 3.69666 117.579 3.69666 117.587 3.69666H117.586Z" fill="#242424"/>
<path fill-rule="evenodd" clip-rule="evenodd" d="M136.522 3.17505H141.312V8.61004H140.71V3.74327H137.132V8.61165H136.522V3.17505Z" fill="#242424"/>
<path fill-rule="evenodd" clip-rule="evenodd" d="M109.059 3.18164H108.295L105.706 5.64874V6.1672L108.29 8.63269H109.052L106.269 5.90877L109.059 3.18164ZM104.93 3.18164H104.324V8.63269H104.93V3.18164Z" fill="#242424"/>
<path d="M143.824 7.99512H143.209V8.60988H143.824V7.99512Z" fill="#242424"/>
</svg>
