<svg width="54" height="54" viewBox="0 0 54 54" fill="none" xmlns="http://www.w3.org/2000/svg">
<circle cx="27" cy="27" r="27" fill="#242424"/>
<path fill-rule="evenodd" clip-rule="evenodd" d="M8.85821 19.553L9.3017 19.7225C9.22737 19.9188 9.15632 20.1167 9.08934 20.3154L8.64014 20.1605C8.70956 19.9569 8.78225 19.7542 8.85821 19.553ZM13.9481 12.2995L14.2511 12.6637C13.258 13.5161 12.3751 14.4692 11.6106 15.4984L11.2243 15.2235C12.0125 14.1609 12.9231 13.1787 13.9481 12.2995ZM33.4372 44.3567C24.7944 47.2734 15.1863 43.6576 10.673 35.743C10.1772 34.9928 9.7313 34.1955 9.34335 33.3552C9.19797 33.0397 9.06239 32.7226 8.93661 32.4038L9.38991 32.2578C9.50915 32.5595 9.63819 32.8596 9.77622 33.1581C13.8256 41.9275 24.2668 45.7769 33.0974 41.7556C41.928 37.7342 45.8042 27.3654 41.7548 18.5959C37.8051 10.0447 27.7788 6.17177 19.0944 9.71296L18.9131 9.2766C28.4738 4.99003 40.2994 8.98055 44.6779 18.4629C44.8102 18.7484 44.9328 19.0355 45.0496 19.3178L45.4326 20.2489C48.4439 29.0313 44.517 38.8422 36.1626 43.1888L35.2136 43.6584C34.8444 43.8255 33.8112 44.2156 33.4372 44.3576L33.4372 44.3567Z" fill="#FB4724"/>
</svg>
