<svg viewBox="0 0 17.6152 20" xmlns="http://www.w3.org/2000/svg" xmlns:xlink="http://www.w3.org/1999/xlink" width="17.615234" height="20.000000" fill="none" customFrame="#000000">
	<g id="Сочетание 282">
		<path id="Стрелка 3" d="M6.76953 9.34619L16.6157 9.34619L16.6157 10.3462L6.76953 10.3462L6.76953 9.34619ZM12.6516 9.84619L12.6516 6.98017L17.6157 9.84619L12.6516 12.7122L12.6516 9.84619L13.6516 9.84619L13.6516 11.8462L13.1516 11.8462L12.9016 11.4132L16.3657 9.41318L16.6157 9.84619L16.3657 10.2792L12.9016 8.2792L13.1516 7.84619L13.6516 7.84619L13.6516 9.84619L12.6516 9.84619ZM13.1516 9.84619L13.1516 7.84619L16.6157 9.84619L13.1516 11.8462L13.1516 9.84619Z" fill="rgb(36.4114,36.4114,36.4114)" fill-rule="nonzero" />
		<path id="Убрать верхний слой" d="M13.8462 0C14.8658 0 15.6923 0.826551 15.6923 1.84615L15.6923 6.31686L14.6923 5.59137L14.6923 1.84615C14.6923 1.37884 14.3135 1 13.8462 1L1.84615 1C1.37884 1 1 1.37884 1 1.84615L1 18.1538C1 18.6212 1.37884 19 1.84615 19L13.8462 19C14.3135 19 14.6923 18.6212 14.6923 18.1538L14.6923 14.4293L15.6923 13.7005L15.6923 18.1538C15.6923 19.1734 14.8658 20 13.8462 20L1.84615 20C0.826551 20 0 19.1734 0 18.1538L0 1.84615C0 0.826551 0.826551 0 1.84615 0L13.8462 0Z" fill="rgb(36.4114,36.4114,36.4114)" fill-rule="evenodd" />
	</g>
</svg>
