<svg width="80" height="67" viewBox="0 0 80 67" fill="none" xmlns="http://www.w3.org/2000/svg">
<path d="M40 15.7482C47.8577 15.7482 54.2527 22.1464 54.2527 30.0082C54.2527 34.7866 51.8902 39.0244 48.2726 41.6135V43.7131C52.9042 40.9084 56 35.8198 56 30.0082C56 21.1675 48.8362 14 40 14C31.1638 14 24 21.1675 24 30.0082C24 37.2299 28.7803 43.3351 35.3475 45.3289V51.1259C35.3475 51.6087 35.7386 52 36.2211 52C36.7036 52 37.0948 51.6087 37.0948 51.1259V31.2319C37.0948 30.7491 36.7036 30.3578 36.2211 30.3578C35.7386 30.3578 35.3475 30.7491 35.3475 31.2319V43.4878C29.7665 41.5536 25.7473 36.2408 25.7473 30.0082C25.7473 22.1464 32.1423 15.7482 40 15.7482Z" fill="white"/>
<path d="M43.7796 30.3578C44.2621 30.3578 44.6533 30.7491 44.6533 31.2319V51.1259C44.6533 51.6087 44.2621 52 43.7796 52C43.2971 52 42.906 51.6087 42.906 51.1259V31.2319C42.906 30.7491 43.2971 30.3578 43.7796 30.3578Z" fill="white"/>
</svg>
