<svg width="19" height="14" viewBox="0 0 19 14" fill="none" xmlns="http://www.w3.org/2000/svg">
<path d="M2.27609 5.53519C2.41179 5.77568 2.71676 5.86064 2.95726 5.72493L6.8764 3.51353C7.1169 3.37782 7.20185 3.07285 7.06615 2.83235C6.93045 2.59186 6.62548 2.5069 6.38498 2.64261L2.9013 4.6083L0.935601 1.12462C0.799898 0.884121 0.494927 0.799168 0.254429 0.934871C0.013931 1.07057 -0.0710223 1.37554 0.0646806 1.61604L2.27609 5.53519ZM9.21155 0.5V1C12.1059 1 14.5234 2.88748 15.2299 5.42365L15.7115 5.28947L16.1932 5.1553C15.363 2.17484 12.5425 0 9.21155 0V0.5ZM2.71155 5.28947L3.19321 5.42365C3.89969 2.88748 6.31717 1 9.21155 1V0.5V0C5.88062 0 3.06013 2.17484 2.22989 5.1553L2.71155 5.28947Z" fill="#242424"/>
<path d="M16.147 8.46481C16.0113 8.22432 15.7063 8.13936 15.4658 8.27507L11.5467 10.4865C11.3062 10.6222 11.2212 10.9271 11.3569 11.1676C11.4926 11.4081 11.7976 11.4931 12.0381 11.3574L15.5218 9.3917L17.4875 12.8754C17.6232 13.1159 17.9282 13.2008 18.1687 13.0651C18.4092 12.9294 18.4941 12.6245 18.3584 12.384L16.147 8.46481ZM9.21155 13.5V13C6.31717 13 3.89969 11.1125 3.19321 8.57635L2.71155 8.71053L2.22989 8.8447C3.06013 11.8252 5.88062 14 9.21155 14V13.5ZM15.7115 8.71053L15.2299 8.57635C14.5234 11.1125 12.1059 13 9.21155 13V13.5V14C12.5425 14 15.363 11.8252 16.1932 8.8447L15.7115 8.71053Z" fill="#242424"/>
</svg>
