<svg width="80" height="67" viewBox="0 0 80 67" fill="none" xmlns="http://www.w3.org/2000/svg">
<path fill-rule="evenodd" clip-rule="evenodd" d="M54.3102 32.8731H18.8788C18.3935 32.8731 18 32.4819 18 31.9994C18 31.5169 18.3935 31.1258 18.8788 31.1258H23.929C24.3856 22.6961 31.4065 16 39.9999 16C48.5932 16 55.6141 22.6961 56.0708 31.1258H61.1212C61.6066 31.1258 62 31.5169 62 31.9994C62 32.4819 61.6066 32.8731 61.1212 32.8731H56.0708C55.6148 41.3033 48.5936 48 39.9999 48C32.6803 48 26.5016 43.1419 24.5485 36.4924H26.3928C28.2903 42.1564 33.6739 46.2527 39.9999 46.2527C47.6091 46.2527 53.8548 40.326 54.3102 32.8731ZM54.3101 31.1258C53.8541 23.6734 47.6088 17.7473 39.9999 17.7473C32.391 17.7473 26.1456 23.6734 25.6896 31.1258H54.3101Z" fill="white"/>
</svg>
