<svg width="80" height="67" viewBox="0 0 80 67" fill="none" xmlns="http://www.w3.org/2000/svg">
<path d="M50.3379 53.5785L28.2491 13.1894C28.0353 12.7985 28.1815 12.3096 28.5756 12.0976C28.9698 11.8855 29.4627 12.0305 29.6765 12.4215L51.7654 52.8106C51.9792 53.2015 51.833 53.6904 51.4388 53.9024C51.0446 54.1145 50.5517 53.9694 50.3379 53.5785Z" fill="white"/>
<path d="M29.6765 53.5785L51.7653 13.1894C51.9791 12.7985 51.8329 12.3096 51.4387 12.0976C51.0446 11.8855 50.5517 12.0305 50.3379 12.4215L28.2489 52.8106C28.0352 53.2015 28.1814 53.6904 28.5756 53.9024C28.9697 54.1145 29.4627 53.9694 29.6765 53.5785Z" fill="white"/>
<path d="M40 17.1161C48.8366 17.1161 56 24.2209 56 32.9851C56 41.7492 48.8366 48.854 40 48.854C39.1624 48.854 38.3394 48.7901 37.5356 48.6668C37.4134 48.6481 37.2916 48.6278 37.1702 48.6063L37.9911 47.1052C38.6472 47.1961 39.3178 47.2434 40 47.2434C47.9397 47.2434 54.3761 40.8597 54.3761 32.9851C54.3761 25.1104 47.9397 18.7267 40 18.7267C32.0603 18.7267 25.6239 25.1104 25.6239 32.9851C25.6239 38.3719 28.6355 43.0622 33.0838 45.4881L32.3013 46.8994C27.355 44.2019 24 38.9826 24 32.9851C24 24.2209 31.1634 17.1161 40 17.1161Z" fill="white"/>
</svg>
