<svg width="163.000000" height="13.092651" viewBox="0 0 163 13.0927" fill="none" xmlns="http://www.w3.org/2000/svg" xmlns:xlink="http://www.w3.org/1999/xlink">
	<desc>
			Created with Pixso.
	</desc>
	<defs/>
	<rect id="Logo_Mini" width="163.000000" height="13.075562" fill="#FFFFFF" fill-opacity="0"/>
	<path id="Vector" d="M3.49 3.25L2.81 3.25L0 10.06L0.71 10.06L3.15 4.16L5.58 10.06L6.31 10.06L6.2 9.81L3.49 3.25Z" fill="#242424" fill-opacity="1.000000" fill-rule="nonzero"/>
	<path id="Vector" d="M20.73 3.12C18.77 3.12 17.18 4.71 17.18 6.66C17.18 8.61 18.77 10.2 20.71 10.21L20.88 10.21L20.88 9.57L20.72 9.57C19.12 9.56 17.82 8.27 17.82 6.66C17.82 5.06 19.17 3.76 20.73 3.76C22.28 3.76 23.46 4.89 23.61 6.34L20.54 6.34L20.54 6.98L24.26 6.99L24.27 6.83C24.27 6.78 24.27 6.73 24.27 6.69C24.27 6.68 24.27 6.67 24.27 6.66C24.27 4.71 22.68 3.12 20.73 3.12L20.73 3.12Z" fill="#242424" fill-opacity="1.000000" fill-rule="nonzero"/>
	<path id="Vector" d="M56 3.12C55.99 3.12 55.97 3.12 55.96 3.12L55.8 3.12L55.8 3.76L55.98 3.76C55.98 3.76 55.99 3.76 56 3.76C57.54 3.76 58.79 4.95 58.9 6.46L58.89 6.46L58.9 6.64C58.9 6.64 58.9 6.65 58.9 6.66C58.9 8.26 57.6 9.57 55.99 9.57C55.94 9.57 55.89 9.57 55.83 9.56L55.77 9.56C54.32 9.45 53.17 8.27 53.1 6.8L53.09 6.64L52.45 6.64L52.46 6.82C52.54 8.59 53.91 10.02 55.66 10.19L55.66 10.19L55.76 10.2C55.84 10.2 55.91 10.21 55.99 10.21L56.16 10.21L56.16 10.2C57.92 10.12 59.36 8.74 59.52 7L59.53 7L59.54 6.83C59.54 6.78 59.54 6.72 59.54 6.66C59.54 4.71 57.95 3.12 55.99 3.12L56 3.12Z" fill="#242424" fill-opacity="1.000000" fill-rule="nonzero"/>
	<path id="Vector" d="M35.23 3.73L38.03 3.73L38.03 10.21L38.72 10.21L38.72 3.73L41.48 3.73L41.48 3.1L35.23 3.1L35.23 3.73Z" fill="#242424" fill-opacity="1.000000" fill-rule="nonzero"/>
	<path id="Vector" d="M90.94 3.12C90.93 3.12 90.92 3.12 90.9 3.12L90.74 3.12L90.74 3.76L90.92 3.76C90.92 3.76 90.93 3.76 90.94 3.76C92.48 3.76 93.74 4.95 93.84 6.46L93.83 6.46L93.84 6.64C93.84 6.64 93.84 6.65 93.84 6.66C93.84 8.26 92.54 9.57 90.94 9.57C90.88 9.57 90.83 9.57 90.78 9.56L90.72 9.56C89.27 9.45 88.11 8.27 88.04 6.8L88.03 6.64L87.39 6.64L87.4 6.82C87.48 8.59 88.86 10.02 90.6 10.19L90.6 10.19L90.71 10.2C90.78 10.2 90.85 10.21 90.93 10.21L91.1 10.21L91.1 10.2C92.87 10.12 94.3 8.74 94.47 7L94.48 7L94.48 6.83C94.48 6.78 94.49 6.72 94.49 6.66C94.49 4.71 92.9 3.12 90.94 3.12Z" fill="#242424" fill-opacity="1.000000" fill-rule="nonzero"/>
	<path id="Vector" d="M75.93 5.18C75.93 4.04 75.01 3.12 73.87 3.12L70.51 3.12L70.51 10.21L71.16 10.21L71.16 3.77L73.89 3.77C74.66 3.78 75.28 4.4 75.28 5.17L75.28 5.18C75.28 5.42 75.22 5.65 75.11 5.85L75.05 5.94C75 6.02 74.94 6.09 74.88 6.16L74.72 6.32L74.92 6.42C75.34 6.65 75.65 7.06 75.75 7.54C75.78 7.66 75.79 7.77 75.79 7.89C75.79 8.81 75.04 9.56 74.12 9.56L73.4 9.56L73.4 10.21L74.12 10.21C75.4 10.21 76.44 9.17 76.44 7.89C76.44 7.21 76.15 6.59 75.68 6.17C75.84 5.87 75.93 5.54 75.93 5.18L75.93 5.18Z" fill="#242424" fill-opacity="1.000000" fill-rule="nonzero"/>
	<path id="Vector" d="M105.21 0L163 0L163 13.09L105.21 13.09L105.21 0Z" fill="#242424" fill-opacity="1.000000" fill-rule="evenodd"/>
	<path id="Vector" d="M137.82 3.45L140.86 3.45C141.94 3.45 142.81 4.33 142.81 5.41C142.81 6.49 141.94 7.36 140.87 7.37L140.68 7.37L140.68 6.73L140.87 6.73C141.59 6.72 142.17 6.13 142.17 5.41C142.17 4.68 141.59 4.09 140.87 4.08L138.46 4.08L138.46 9.39L137.82 9.39L137.82 3.45L137.82 3.45Z" fill="#FAFAFA" fill-opacity="1.000000" fill-rule="evenodd"/>
	<path id="Vector" d="M128.29 4.02C129.53 4.02 130.56 4.97 130.67 6.18L130.67 6.18L130.68 6.4C130.68 6.4 130.68 6.41 130.68 6.42C130.68 7.74 129.61 8.82 128.28 8.82C128.24 8.82 128.2 8.82 128.15 8.81L128.1 8.81C126.9 8.72 125.95 7.74 125.89 6.53L125.88 6.34L125.21 6.34L125.22 6.55C125.3 8.18 126.64 9.48 128.28 9.49L128.48 9.49L128.48 9.48C129.97 9.38 131.16 8.23 131.33 6.77L131.34 6.77L131.35 6.57C131.35 6.52 131.35 6.47 131.35 6.42C131.35 4.72 129.98 3.35 128.29 3.35C128.29 3.35 128.27 3.35 128.25 3.35L128.06 3.36L128.06 4.03L128.28 4.02C128.28 4.02 128.28 4.02 128.29 4.02L128.29 4.02Z" fill="#FAFAFA" fill-opacity="1.000000" fill-rule="evenodd"/>
	<path id="Vector" d="M148.95 3.45L154.18 3.45L154.18 9.38L153.52 9.38L153.52 4.07L149.62 4.07L149.62 9.38L148.95 9.38L148.95 3.45Z" fill="#FAFAFA" fill-opacity="1.000000" fill-rule="evenodd"/>
	<path id="Vector" d="M118.99 3.45L118.15 3.45L115.33 6.15L115.33 6.71L118.15 9.4L118.98 9.4L115.94 6.43L118.99 3.45ZM114.48 3.45L113.82 3.45L113.82 9.4L114.48 9.4L114.48 3.45Z" fill="#FAFAFA" fill-opacity="1.000000" fill-rule="evenodd"/>
	<path id="Vector" d="M156.25 8.71L156.92 8.71L156.92 9.38L156.25 9.38L156.25 8.71Z" fill="#FAFAFA" fill-opacity="1.000000" fill-rule="evenodd"/>
</svg>
